<svg width="2496" height="607" viewBox="0 0 2496 607" fill="none" xmlns="http://www.w3.org/2000/svg">
<g clip-path="url(#clip0_68_1131)">
<rect width="2496" height="606.826" rx="16" fill="black"/>
<g clip-path="url(#clip1_68_1131)">
<rect width="2496" height="606.826" rx="18.3193" fill="#1D1B1E"/>
<rect x="1766" y="36" width="845" height="647" fill="#1E1D1D" fill-opacity="0.2"/>
<g filter="url(#filter0_f_68_1131)">
<path d="M2466.04 -5037.51C2773.19 -5709.92 3330.3 -5415.34 3544.71 -4964.07C3759.13 -4512.8 3679.44 -2669.87 3672.47 -1409.41C3663.75 166.163 2071.11 1043.4 334.494 1430.42C-1402.12 1817.44 -1951.36 -632.818 -1939.26 -911.19C-1928.13 -1167.16 -1175.36 -1410.18 -323.881 -1670.58C1201.83 -2137.17 2082.1 -4196.99 2466.04 -5037.51Z" fill="#4078B9"/>
</g>
<g filter="url(#filter1_f_68_1131)">
<path d="M579.038 -5227.51C886.186 -5899.92 1443.3 -5605.34 1657.71 -5154.07C1872.13 -4702.8 1792.44 -2859.87 1785.47 -1599.41C1776.75 -23.8374 184.106 853.397 -1552.51 1240.42C-3289.12 1627.44 -3838.36 -822.818 -3826.26 -1101.19C-3815.13 -1357.16 -3062.36 -1600.18 -2210.88 -1860.58C-685.169 -2327.17 195.102 -4386.99 579.038 -5227.51Z" fill="#0B0B0B"/>
</g>
<path d="M2443.26 -31.6551H1877.22C1837.78 -31.6551 -331.266 -98.6104 -308.827 -14.8687L-237.143 674.276L1735.8 654.726C1787.06 602.452 1878.11 462.058 1884.17 442.001V414.603L1900.64 417.012V432.924L1943.22 438.583V423.343L1957.9 425.528V431.187C1967.65 462.058 1993.76 491.697 2027.71 509.85C2030.34 511.25 2032.92 512.427 2035.55 513.66C2121.61 465.532 2187.61 368.941 2226.55 236.212V292.688C2194.78 377.737 2150.69 445.642 2096.51 492.481L2235.4 439.759V64.8801L2243.25 49.6406V433.316C2246.22 430.571 2249.24 427.826 2252.15 425.024V49.6406L2285.99 56.7001V90.3726L2388.47 109.646V78.1025L2417.04 84.0414V109.254C2429.59 130.096 2461.47 170.156 2514.98 202.483V40.228C2514.98 0.784714 2482.71 -31.5431 2443.21 -31.5431L2443.26 -31.6551Z" fill="url(#paint0_linear_68_1131)"/>
<path d="M2514.98 222.543C2469.88 197.33 2437.16 166.291 2417.04 140.911V216.211C2406.9 209.32 2397.32 202.149 2388.3 194.697C2386.23 170.941 2366.39 149.259 2341.13 144.16C2340.4 144.048 2339.67 143.824 2338.94 143.712C2333.79 142.872 2328.8 142.816 2324.04 143.432C2364.26 191.279 2427.86 248.203 2515.03 270.894V222.543H2514.98Z" fill="url(#paint1_linear_68_1131)"/>
<path d="M1997.9 529.909L2021.71 520.889C2021.71 520.889 2022.16 520.665 2022.38 520.553C2022.27 520.553 2022.22 520.44 2022.1 520.44C1994.76 505.873 1972.13 484.247 1957.9 460.155V527.5C1970.5 534.167 1984.01 535.232 1997.9 529.965V529.909Z" fill="url(#paint2_linear_68_1131)"/>
<path d="M1884.17 477.13C1868.53 513.94 1837.33 569.463 1779.79 612.716L1805.45 602.968L1884.17 573.105V477.186V477.13Z" fill="url(#paint3_linear_68_1131)"/>
<path d="M2514.98 289.438C2417.88 265.627 2348.35 201.531 2305.94 149.594C2305.94 149.594 2299.16 154.02 2295.24 158.839C2292.05 162.817 2289.58 167.411 2288.07 172.285C2286.72 176.543 2286.05 181.081 2286.05 185.508V387.71C2322.41 342.384 2350.09 288.094 2369.03 225.119C2372.5 227.92 2376.03 230.666 2379.62 233.411V385.021L2388.53 381.66V239.966C2397.6 246.465 2407.13 252.684 2417.1 258.623V370.846L2515.04 333.644V289.494L2514.98 289.438Z" fill="url(#paint4_linear_68_1131)"/>
<path d="M2285.99 415.78V420.487L2371.72 387.935V272.63C2350.48 327.705 2321.85 375.441 2285.99 415.78Z" fill="url(#paint5_linear_68_1131)"/>
<path d="M1943.27 481.668C1943.27 470.351 1933.86 460.098 1921.98 458.809C1917.22 458.305 1912.79 459.313 1909.15 461.386C1918.34 485.086 1930.11 504.191 1943.27 516.629V481.668Z" fill="url(#paint6_linear_68_1131)"/>
<path d="M1899.74 477.805V567.168L1943.28 550.64V532.151C1926.8 519.881 1912.01 498.983 1900.64 472.146C1900.08 473.939 1899.69 475.844 1899.69 477.861L1899.74 477.805Z" fill="url(#paint7_linear_68_1131)"/>
<path d="M1807.69 623.53C1815.53 654.681 1843.71 677.932 1877.22 677.932H1884.22V615.406L1900.92 614.453L1901.64 645.829L1905.79 614.173L1936.61 612.38L1940.53 642.075L1942.54 611.988L1957.95 611.092V677.876H2235.51V628.5L2243.36 636V677.82H2252.26L2264.5 650.5L2292.5 640.5L2296.3 621.008L2310.5 632.5L2368.5 632.5L2379.61 606.553L2394 645L2413 632.5L2417.04 677.82H2443.26C2482.71 677.82 2515.03 645.548 2515.03 606.049V467.437L2577 430.683L1807.69 623.418V623.53Z" fill="#2C3846" fill-opacity="0.8"/>
<path d="M2514.98 348.549L1955.94 556.299L2514.98 364.237V348.549Z" fill="#2C3846"/>
<path d="M2123.35 507.722L2514.98 392.698V376.954L2123.35 507.722Z" fill="#2C3846"/>
</g>
<g filter="url(#filter2_f_68_1131)">
<path d="M-945.962 -2370.51C-638.814 -3042.92 -81.7013 -2748.34 132.714 -2297.07C347.129 -1845.8 267.44 -2.86968 260.469 1257.59C251.755 2833.16 -1340.89 3710.4 -3077.51 4097.42C-4814.12 4484.44 -5363.36 2034.18 -5351.26 1755.81C-5340.13 1499.84 -4587.36 1256.82 -3735.88 996.419C-2210.17 529.828 -1329.9 -1529.99 -945.962 -2370.51Z" fill="#0B0B0B"/>
</g>
<path d="M975.431 371.003C969.967 370.916 964.502 369.875 959.038 367.88C953.573 365.885 948.586 362.524 944.075 357.797C939.565 353.026 935.943 346.586 933.211 338.476C930.479 330.322 929.113 320.087 929.113 307.77C929.113 295.974 930.219 285.521 932.431 276.414C934.642 267.263 937.852 259.565 942.059 253.32C946.265 247.031 951.34 242.26 957.281 239.008C963.266 235.755 970.01 234.129 977.513 234.129C984.973 234.129 991.608 235.625 997.42 238.617C1003.27 241.567 1008.05 245.687 1011.73 250.978C1015.42 256.269 1017.8 262.362 1018.89 269.258H1003.01C1001.54 263.273 998.677 258.307 994.427 254.361C990.177 250.414 984.539 248.441 977.513 248.441C967.191 248.441 959.059 252.929 953.118 261.907C947.22 270.884 944.249 283.483 944.205 299.703H945.246C947.675 296.017 950.559 292.873 953.898 290.27C957.281 287.625 961.011 285.587 965.088 284.155C969.164 282.724 973.48 282.009 978.034 282.009C985.667 282.009 992.649 283.917 998.981 287.733C1005.31 291.506 1010.39 296.732 1014.2 303.411C1018.02 310.047 1019.93 317.658 1019.93 326.245C1019.93 334.486 1018.09 342.032 1014.4 348.884C1010.71 355.693 1005.53 361.115 998.851 365.148C992.215 369.138 984.409 371.089 975.431 371.003ZM975.431 356.691C980.896 356.691 985.797 355.325 990.134 352.592C994.514 349.86 997.962 346.195 1000.48 341.598C1003.04 337.001 1004.32 331.883 1004.32 326.245C1004.32 320.738 1003.08 315.728 1000.61 311.218C998.179 306.664 994.818 303.043 990.524 300.354C986.274 297.665 981.416 296.32 975.952 296.32C971.832 296.32 967.993 297.145 964.437 298.793C960.881 300.397 957.758 302.609 955.069 305.428C952.424 308.247 950.342 311.478 948.824 315.121C947.306 318.721 946.547 322.516 946.547 326.506C946.547 331.797 947.783 336.741 950.255 341.338C952.771 345.935 956.197 349.643 960.534 352.462C964.914 355.281 969.88 356.691 975.431 356.691Z" fill="white"/>
<path d="M864.648 371.003C855.714 371.003 847.821 369.42 840.968 366.254C834.159 363.044 828.847 358.642 825.03 353.048C821.214 347.41 819.327 340.991 819.37 333.792C819.327 328.154 820.433 322.949 822.688 318.179C824.943 313.365 828.023 309.353 831.926 306.144C835.872 302.891 840.274 300.831 845.132 299.964V299.183C838.757 297.535 833.682 293.957 829.909 288.449C826.136 282.898 824.271 276.587 824.314 269.518C824.271 262.753 825.984 256.702 829.454 251.368C832.923 246.034 837.694 241.827 843.766 238.748C849.881 235.668 856.842 234.129 864.648 234.129C872.368 234.129 879.264 235.668 885.335 238.748C891.407 241.827 896.178 246.034 899.647 251.368C903.16 256.702 904.938 262.753 904.982 269.518C904.938 276.587 903.008 282.898 899.192 288.449C895.419 293.957 890.41 297.535 884.164 299.183V299.964C888.978 300.831 893.315 302.891 897.175 306.144C901.035 309.353 904.114 313.365 906.413 318.179C908.712 322.949 909.882 328.154 909.926 333.792C909.882 340.991 907.931 347.41 904.071 353.048C900.254 358.642 894.942 363.044 888.133 366.254C881.367 369.42 873.539 371.003 864.648 371.003ZM864.648 356.691C870.676 356.691 875.881 355.715 880.261 353.763C884.641 351.812 888.024 349.058 890.41 345.501C892.795 341.945 894.009 337.782 894.053 333.011C894.009 327.98 892.708 323.535 890.149 319.675C887.591 315.815 884.099 312.779 879.676 310.567C875.295 308.356 870.286 307.25 864.648 307.25C858.967 307.25 853.892 308.356 849.425 310.567C845.002 312.779 841.511 315.815 838.952 319.675C836.436 323.535 835.2 327.98 835.244 333.011C835.2 337.782 836.35 341.945 838.691 345.501C841.077 349.058 844.481 351.812 848.905 353.763C853.329 355.715 858.576 356.691 864.648 356.691ZM864.648 293.458C869.419 293.458 873.647 292.504 877.334 290.596C881.063 288.687 883.991 286.02 886.116 282.594C888.241 279.168 889.325 275.156 889.369 270.559C889.325 266.049 888.263 262.124 886.181 258.784C884.099 255.401 881.215 252.799 877.529 250.978C873.842 249.113 869.549 248.18 864.648 248.18C859.661 248.18 855.302 249.113 851.572 250.978C847.842 252.799 844.958 255.401 842.92 258.784C840.882 262.124 839.884 266.049 839.928 270.559C839.884 275.156 840.903 279.168 842.985 282.594C845.11 286.02 848.038 288.687 851.767 290.596C855.497 292.504 859.791 293.458 864.648 293.458Z" fill="white"/>
<path d="M727.828 369.181L787.418 251.303V250.262H718.721V235.95H804.072V251.043L744.742 369.181H727.828Z" fill="white"/>
<path d="M623.258 369.181L682.847 251.303V250.262H614.15V235.95H699.501V251.043L640.172 369.181H623.258Z" fill="white"/>
<path d="M600.12 295.409V309.721H541.831V295.409H600.12Z" fill="white"/>
<path d="M522.547 277.585H506.414C505.459 272.944 503.79 268.868 501.404 265.355C499.062 261.842 496.2 258.893 492.817 256.507C489.478 254.079 485.77 252.257 481.693 251.043C477.616 249.828 473.366 249.221 468.942 249.221C460.876 249.221 453.568 251.26 447.019 255.336C440.514 259.413 435.331 265.42 431.471 273.356C427.655 281.293 425.746 291.029 425.746 302.566C425.746 314.102 427.655 323.838 431.471 331.775C435.331 339.712 440.514 345.718 447.019 349.795C453.568 353.872 460.876 355.91 468.942 355.91C473.366 355.91 477.616 355.303 481.693 354.089C485.77 352.874 489.478 351.074 492.817 348.689C496.2 346.26 499.062 343.29 501.404 339.777C503.79 336.22 505.459 332.144 506.414 327.547H522.547C521.333 334.356 519.121 340.449 515.911 345.827C512.702 351.205 508.712 355.78 503.941 359.553C499.171 363.283 493.815 366.124 487.873 368.075C481.975 370.027 475.665 371.003 468.942 371.003C457.579 371.003 447.474 368.227 438.627 362.676C429.78 357.124 422.819 349.231 417.745 338.996C412.67 328.761 410.133 316.617 410.133 302.566C410.133 288.514 412.67 276.371 417.745 266.135C422.819 255.9 429.78 248.007 438.627 242.456C447.474 236.904 457.579 234.129 468.942 234.129C475.665 234.129 481.975 235.104 487.873 237.056C493.815 239.008 499.171 241.87 503.941 245.643C508.712 249.373 512.702 253.927 515.911 259.305C519.121 264.639 521.333 270.732 522.547 277.585Z" fill="white"/>
<path d="M301.822 369.181V235.95H346.84C357.248 235.95 365.792 237.728 372.471 241.285C379.15 244.797 384.094 249.633 387.303 255.792C390.513 261.95 392.118 268.954 392.118 276.804C392.118 284.654 390.513 291.615 387.303 297.687C384.094 303.758 379.172 308.529 372.536 311.998C365.901 315.425 357.422 317.138 347.1 317.138H310.67V302.566H346.58C353.692 302.566 359.417 301.525 363.754 299.443C368.134 297.361 371.3 294.412 373.252 290.596C375.247 286.736 376.244 282.139 376.244 276.804C376.244 271.47 375.247 266.807 373.252 262.817C371.257 258.827 368.069 255.748 363.689 253.58C359.308 251.368 353.519 250.262 346.319 250.262H317.956V369.181H301.822ZM364.535 309.331L397.322 369.181H378.586L346.319 309.331H364.535Z" fill="white"/>
<path d="M196 369.181V235.95H276.407V250.262H212.133V295.28H272.244V309.591H212.133V354.869H277.448V369.181H196Z" fill="white"/>
</g>
<defs>
<filter id="filter0_f_68_1131" x="-3271.25" y="-6764.86" width="8295.71" height="9568.43" filterUnits="userSpaceOnUse" color-interpolation-filters="sRGB">
<feFlood flood-opacity="0" result="BackgroundImageFix"/>
<feBlend mode="normal" in="SourceGraphic" in2="BackgroundImageFix" result="shape"/>
<feGaussianBlur stdDeviation="665.9" result="effect1_foregroundBlur_68_1131"/>
</filter>
<filter id="filter1_f_68_1131" x="-5158.25" y="-6954.86" width="8295.71" height="9568.43" filterUnits="userSpaceOnUse" color-interpolation-filters="sRGB">
<feFlood flood-opacity="0" result="BackgroundImageFix"/>
<feBlend mode="normal" in="SourceGraphic" in2="BackgroundImageFix" result="shape"/>
<feGaussianBlur stdDeviation="665.9" result="effect1_foregroundBlur_68_1131"/>
</filter>
<filter id="filter2_f_68_1131" x="-6683.25" y="-4097.86" width="8295.71" height="9568.43" filterUnits="userSpaceOnUse" color-interpolation-filters="sRGB">
<feFlood flood-opacity="0" result="BackgroundImageFix"/>
<feBlend mode="normal" in="SourceGraphic" in2="BackgroundImageFix" result="shape"/>
<feGaussianBlur stdDeviation="665.9" result="effect1_foregroundBlur_68_1131"/>
</filter>
<linearGradient id="paint0_linear_68_1131" x1="1395" y1="195.5" x2="2256.59" y2="560.776" gradientUnits="userSpaceOnUse">
<stop offset="0.222703" stop-color="#285AA3" stop-opacity="0"/>
<stop offset="0.622051" stop-color="#3A74B6"/>
<stop offset="1" stop-color="#5D8EC7"/>
</linearGradient>
<linearGradient id="paint1_linear_68_1131" x1="2282.97" y1="-200.464" x2="2479.74" y2="352.19" gradientUnits="userSpaceOnUse">
<stop stop-color="#285AA3"/>
<stop offset="0.62" stop-color="#3A74B6"/>
<stop offset="1" stop-color="#5D8EC7"/>
</linearGradient>
<linearGradient id="paint2_linear_68_1131" x1="1794.19" y1="-26.499" x2="1990.95" y2="526.211" gradientUnits="userSpaceOnUse">
<stop stop-color="#285AA3"/>
<stop offset="0.62" stop-color="#3A74B6"/>
<stop offset="1" stop-color="#5D8EC7"/>
</linearGradient>
<linearGradient id="paint3_linear_68_1131" x1="1647.23" y1="25.8853" x2="1843.99" y2="578.54" gradientUnits="userSpaceOnUse">
<stop stop-color="#285AA3"/>
<stop offset="0.62" stop-color="#3A74B6"/>
<stop offset="1" stop-color="#5D8EC7"/>
</linearGradient>
<linearGradient id="paint4_linear_68_1131" x1="2216.97" y1="-176.99" x2="2413.74" y2="375.721" gradientUnits="userSpaceOnUse">
<stop stop-color="#285AA3"/>
<stop offset="0.62" stop-color="#3A74B6"/>
<stop offset="1" stop-color="#5D8EC7"/>
</linearGradient>
<linearGradient id="paint5_linear_68_1131" x1="2150.86" y1="-153.402" x2="2347.62" y2="399.252" gradientUnits="userSpaceOnUse">
<stop stop-color="#285AA3"/>
<stop offset="0.62" stop-color="#3A74B6"/>
<stop offset="1" stop-color="#5D8EC7"/>
</linearGradient>
<linearGradient id="paint6_linear_68_1131" x1="1754.57" y1="-12.3819" x2="1951.34" y2="540.329" gradientUnits="userSpaceOnUse">
<stop stop-color="#285AA3"/>
<stop offset="0.62" stop-color="#3A74B6"/>
<stop offset="1" stop-color="#5D8EC7"/>
</linearGradient>
<linearGradient id="paint7_linear_68_1131" x1="1725.16" y1="-1.84575" x2="1921.87" y2="550.808" gradientUnits="userSpaceOnUse">
<stop stop-color="#285AA3"/>
<stop offset="0.62" stop-color="#3A74B6"/>
<stop offset="1" stop-color="#5D8EC7"/>
</linearGradient>
<clipPath id="clip0_68_1131">
<rect width="2496" height="606.826" rx="16" fill="white"/>
</clipPath>
<clipPath id="clip1_68_1131">
<rect width="2496" height="606.826" rx="18.3193" fill="white"/>
</clipPath>
</defs>
</svg>
