<svg width="2496" height="607" viewBox="0 0 2496 607" fill="none" xmlns="http://www.w3.org/2000/svg">
<g clip-path="url(#clip0_68_1123)">
<rect width="2517" height="607" fill="url(#paint0_linear_68_1123)"/>
<g filter="url(#filter0_f_68_1123)">
<path d="M2676.04 -4801.51C2983.19 -5473.92 3540.3 -5179.34 3754.71 -4728.07C3969.13 -4276.8 3889.44 -2433.87 3882.47 -1173.41C3873.75 402.163 2281.11 1279.4 544.494 1666.42C-1192.12 2053.44 -1741.36 -396.818 -1729.26 -675.19C-1718.13 -931.164 -965.364 -1174.18 -113.881 -1434.58C1411.83 -1901.17 2292.1 -3960.99 2676.04 -4801.51Z" fill="#4078B9"/>
</g>
<g filter="url(#filter1_f_68_1123)">
<path d="M789.038 -4991.51C1096.19 -5663.92 1653.3 -5369.34 1867.71 -4918.07C2082.13 -4466.8 2002.44 -2623.87 1995.47 -1363.41C1986.75 212.163 394.106 1089.4 -1342.51 1476.42C-3079.12 1863.44 -3628.36 -586.818 -3616.26 -865.19C-3605.13 -1121.16 -2852.36 -1364.18 -2000.88 -1624.58C-475.169 -2091.17 405.102 -4150.99 789.038 -4991.51Z" fill="#0B0B0B"/>
</g>
<path d="M498.718 193.159C496.596 193.126 494.473 192.722 492.351 191.947C490.229 191.172 488.291 189.866 486.54 188.03C484.788 186.178 483.381 183.676 482.32 180.526C481.259 177.36 480.729 173.385 480.729 168.601C480.729 164.019 481.158 159.96 482.017 156.423C482.876 152.869 484.123 149.879 485.756 147.453C487.39 145.011 489.361 143.158 491.669 141.895C493.993 140.632 496.612 140 499.526 140C502.424 140 505.001 140.581 507.258 141.743C509.532 142.889 511.385 144.489 512.816 146.544C514.248 148.599 515.174 150.965 515.596 153.644H509.431C508.858 151.319 507.746 149.39 506.096 147.858C504.445 146.325 502.255 145.558 499.526 145.558C495.518 145.558 492.359 147.302 490.052 150.788C487.761 154.275 486.607 159.168 486.59 165.468H486.994C487.938 164.036 489.058 162.815 490.355 161.804C491.669 160.777 493.117 159.985 494.701 159.429C496.284 158.874 497.96 158.596 499.729 158.596C502.693 158.596 505.405 159.337 507.864 160.819C510.323 162.284 512.294 164.314 513.776 166.908C515.259 169.485 516 172.441 516 175.776C516 178.977 515.284 181.908 513.852 184.569C512.42 187.214 510.408 189.319 507.814 190.886C505.236 192.435 502.205 193.193 498.718 193.159ZM498.718 187.601C500.84 187.601 502.744 187.07 504.428 186.009C506.129 184.948 507.468 183.525 508.445 181.739C509.439 179.954 509.936 177.966 509.936 175.776C509.936 173.637 509.456 171.692 508.496 169.94C507.553 168.171 506.247 166.765 504.58 165.721C502.929 164.676 501.042 164.154 498.92 164.154C497.32 164.154 495.829 164.474 494.448 165.114C493.067 165.737 491.854 166.597 490.81 167.691C489.782 168.786 488.974 170.041 488.384 171.456C487.795 172.854 487.5 174.328 487.5 175.878C487.5 177.933 487.98 179.853 488.94 181.638C489.917 183.424 491.248 184.864 492.932 185.959C494.633 187.054 496.562 187.601 498.718 187.601Z" fill="white" fill-opacity="0.8"/>
<path d="M455.692 193.159C452.222 193.159 449.156 192.545 446.495 191.315C443.85 190.069 441.787 188.359 440.305 186.186C438.822 183.996 438.09 181.503 438.106 178.707C438.09 176.518 438.519 174.496 439.395 172.644C440.271 170.774 441.467 169.216 442.983 167.969C444.516 166.706 446.225 165.906 448.112 165.569V165.266C445.636 164.626 443.665 163.236 442.2 161.097C440.734 158.941 440.01 156.49 440.027 153.745C440.01 151.117 440.675 148.767 442.023 146.695C443.37 144.624 445.223 142.99 447.581 141.794C449.956 140.598 452.66 140 455.692 140C458.69 140 461.368 140.598 463.726 141.794C466.084 142.99 467.937 144.624 469.285 146.695C470.649 148.767 471.34 151.117 471.356 153.745C471.34 156.49 470.59 158.941 469.108 161.097C467.642 163.236 465.697 164.626 463.271 165.266V165.569C465.141 165.906 466.825 166.706 468.325 167.969C469.824 169.216 471.02 170.774 471.912 172.644C472.805 174.496 473.26 176.518 473.277 178.707C473.26 181.503 472.502 183.996 471.003 186.186C469.52 188.359 467.457 190.069 464.813 191.315C462.185 192.545 459.145 193.159 455.692 193.159ZM455.692 187.601C458.033 187.601 460.054 187.222 461.755 186.464C463.457 185.706 464.77 184.636 465.697 183.255C466.623 181.874 467.095 180.257 467.112 178.404C467.095 176.45 466.59 174.724 465.596 173.225C464.602 171.726 463.246 170.546 461.528 169.687C459.827 168.828 457.881 168.399 455.692 168.399C453.485 168.399 451.514 168.828 449.779 169.687C448.061 170.546 446.705 171.726 445.711 173.225C444.735 174.724 444.254 176.45 444.271 178.404C444.254 180.257 444.701 181.874 445.61 183.255C446.537 184.636 447.859 185.706 449.577 186.464C451.295 187.222 453.333 187.601 455.692 187.601ZM455.692 163.042C457.544 163.042 459.187 162.672 460.618 161.931C462.067 161.19 463.204 160.154 464.029 158.823C464.855 157.492 465.276 155.934 465.293 154.149C465.276 152.397 464.863 150.873 464.055 149.576C463.246 148.262 462.126 147.251 460.694 146.544C459.262 145.819 457.595 145.457 455.692 145.457C453.754 145.457 452.062 145.819 450.613 146.544C449.165 147.251 448.044 148.262 447.253 149.576C446.461 150.873 446.074 152.397 446.09 154.149C446.074 155.934 446.469 157.492 447.278 158.823C448.103 160.154 449.24 161.19 450.689 161.931C452.137 162.672 453.805 163.042 455.692 163.042Z" fill="white" fill-opacity="0.8"/>
<path d="M402.553 192.452L425.697 146.67V146.266H399.016V140.707H432.165V146.569L409.123 192.452H402.553Z" fill="white" fill-opacity="0.8"/>
<path d="M361.94 192.452L385.083 146.67V146.266H358.402V140.707H391.551V146.569L368.509 192.452H361.94Z" fill="white" fill-opacity="0.8"/>
<path d="M352.953 163.8V169.359H330.315V163.8H352.953Z" fill="white" fill-opacity="0.8"/>
<path d="M322.825 156.878H316.559C316.189 155.075 315.54 153.492 314.614 152.128C313.704 150.763 312.592 149.618 311.279 148.691C309.982 147.748 308.541 147.041 306.958 146.569C305.375 146.097 303.724 145.862 302.006 145.862C298.873 145.862 296.035 146.653 293.491 148.237C290.965 149.82 288.952 152.153 287.453 155.235C285.97 158.318 285.229 162.099 285.229 166.58C285.229 171.06 285.97 174.842 287.453 177.924C288.952 181.007 290.965 183.339 293.491 184.923C296.035 186.506 298.873 187.298 302.006 187.298C303.724 187.298 305.375 187.062 306.958 186.59C308.541 186.119 309.982 185.42 311.279 184.493C312.592 183.55 313.704 182.396 314.614 181.032C315.54 179.651 316.189 178.067 316.559 176.282H322.825C322.353 178.926 321.494 181.293 320.248 183.382C319.002 185.47 317.452 187.247 315.599 188.713C313.746 190.161 311.666 191.265 309.358 192.022C307.068 192.78 304.617 193.159 302.006 193.159C297.593 193.159 293.668 192.081 290.232 189.925C286.796 187.769 284.092 184.704 282.122 180.729C280.151 176.753 279.166 172.037 279.166 166.58C279.166 161.122 280.151 156.406 282.122 152.431C284.092 148.456 286.796 145.39 290.232 143.234C293.668 141.078 297.593 140 302.006 140C304.617 140 307.068 140.379 309.358 141.137C311.666 141.895 313.746 143.007 315.599 144.472C317.452 145.921 319.002 147.689 320.248 149.778C321.494 151.85 322.353 154.216 322.825 156.878Z" fill="white" fill-opacity="0.8"/>
<path d="M237.1 192.452V140.707H254.584C258.626 140.707 261.944 141.398 264.538 142.779C267.132 144.143 269.053 146.022 270.299 148.413C271.546 150.805 272.169 153.526 272.169 156.574C272.169 159.623 271.546 162.327 270.299 164.685C269.053 167.043 267.141 168.896 264.564 170.243C261.987 171.574 258.694 172.239 254.685 172.239H240.536V166.58H254.483C257.245 166.58 259.468 166.175 261.153 165.367C262.854 164.558 264.084 163.413 264.842 161.931C265.616 160.432 266.004 158.646 266.004 156.574C266.004 154.502 265.616 152.692 264.842 151.142C264.067 149.592 262.829 148.397 261.128 147.554C259.426 146.695 257.178 146.266 254.382 146.266H243.366V192.452H237.1ZM261.456 169.207L274.19 192.452H266.913L254.382 169.207H261.456Z" fill="white" fill-opacity="0.8"/>
<path d="M196 192.452V140.707H227.229V146.266H202.266V163.75H225.612V169.308H202.266V186.893H227.633V192.452H196Z" fill="white" fill-opacity="0.8"/>
<path d="M272.367 273.153H257.758C257.341 270.757 256.573 268.635 255.453 266.786C254.333 264.911 252.94 263.322 251.273 262.02C249.607 260.718 247.706 259.741 245.57 259.09C243.461 258.413 241.182 258.075 238.734 258.075C234.385 258.075 230.531 259.168 227.172 261.356C223.813 263.517 221.182 266.694 219.281 270.887C217.38 275.054 216.43 280.145 216.43 286.161C216.43 292.28 217.38 297.437 219.281 301.629C221.208 305.796 223.839 308.947 227.172 311.083C230.531 313.192 234.372 314.247 238.695 314.247C241.091 314.247 243.331 313.934 245.414 313.309C247.523 312.658 249.411 311.708 251.078 310.458C252.771 309.208 254.19 307.671 255.336 305.848C256.508 304.025 257.315 301.942 257.758 299.598L272.367 299.676C271.82 303.478 270.635 307.046 268.812 310.379C267.016 313.713 264.659 316.655 261.742 319.208C258.826 321.734 255.414 323.713 251.508 325.145C247.602 326.551 243.266 327.254 238.5 327.254C231.469 327.254 225.193 325.627 219.672 322.372C214.151 319.116 209.802 314.416 206.625 308.27C203.448 302.124 201.859 294.754 201.859 286.161C201.859 277.541 203.461 270.171 206.664 264.051C209.867 257.905 214.229 253.205 219.75 249.95C225.271 246.694 231.521 245.067 238.5 245.067C242.953 245.067 247.094 245.692 250.922 246.942C254.75 248.192 258.161 250.028 261.156 252.45C264.151 254.846 266.612 257.788 268.539 261.278C270.492 264.741 271.768 268.7 272.367 273.153ZM282.814 326.161V266.161H296.525V276.161H297.15C298.243 272.697 300.118 270.028 302.775 268.153C305.457 266.252 308.517 265.301 311.954 265.301C312.736 265.301 313.608 265.34 314.571 265.418C315.561 265.471 316.381 265.562 317.032 265.692V278.7C316.433 278.491 315.483 278.309 314.181 278.153C312.905 277.971 311.668 277.879 310.47 277.879C307.892 277.879 305.574 278.439 303.517 279.559C301.486 280.653 299.884 282.176 298.712 284.129C297.54 286.083 296.954 288.335 296.954 290.887V326.161H282.814ZM347.928 327.333C342.069 327.333 336.991 326.043 332.694 323.465C328.397 320.887 325.064 317.28 322.694 312.645C320.35 308.01 319.178 302.593 319.178 296.395C319.178 290.197 320.35 284.767 322.694 280.106C325.064 275.444 328.397 271.825 332.694 269.247C336.991 266.668 342.069 265.379 347.928 265.379C353.787 265.379 358.866 266.668 363.162 269.247C367.459 271.825 370.78 275.444 373.123 280.106C375.493 284.767 376.678 290.197 376.678 296.395C376.678 302.593 375.493 308.01 373.123 312.645C370.78 317.28 367.459 320.887 363.162 323.465C358.866 326.043 353.787 327.333 347.928 327.333ZM348.006 316.004C351.183 316.004 353.84 315.132 355.975 313.387C358.11 311.616 359.699 309.247 360.741 306.278C361.808 303.309 362.342 300.002 362.342 296.356C362.342 292.684 361.808 289.364 360.741 286.395C359.699 283.4 358.11 281.017 355.975 279.247C353.84 277.476 351.183 276.59 348.006 276.59C344.751 276.59 342.043 277.476 339.881 279.247C337.746 281.017 336.144 283.4 335.077 286.395C334.035 289.364 333.514 292.684 333.514 296.356C333.514 300.002 334.035 303.309 335.077 306.278C336.144 309.247 337.746 311.616 339.881 313.387C342.043 315.132 344.751 316.004 348.006 316.004ZM433.902 282.02L421.011 283.426C420.647 282.124 420.009 280.9 419.097 279.754C418.212 278.609 417.014 277.684 415.504 276.981C413.993 276.278 412.144 275.926 409.957 275.926C407.014 275.926 404.54 276.564 402.535 277.84C400.556 279.116 399.579 280.77 399.605 282.801C399.579 284.546 400.217 285.965 401.519 287.059C402.847 288.153 405.035 289.051 408.082 289.754L418.316 291.942C423.993 293.166 428.212 295.106 430.972 297.762C433.759 300.418 435.165 303.895 435.191 308.192C435.165 311.968 434.058 315.301 431.871 318.192C429.709 321.056 426.701 323.296 422.847 324.911C418.993 326.525 414.566 327.333 409.566 327.333C402.222 327.333 396.311 325.796 391.832 322.723C387.352 319.624 384.683 315.314 383.824 309.793L397.613 308.465C398.238 311.174 399.566 313.218 401.597 314.598C403.629 315.978 406.272 316.668 409.527 316.668C412.886 316.668 415.582 315.978 417.613 314.598C419.67 313.218 420.699 311.512 420.699 309.481C420.699 307.762 420.035 306.343 418.707 305.223C417.405 304.103 415.373 303.244 412.613 302.645L402.379 300.497C396.623 299.299 392.365 297.28 389.605 294.442C386.845 291.577 385.477 287.958 385.504 283.583C385.477 279.885 386.48 276.681 388.511 273.973C390.569 271.239 393.42 269.129 397.066 267.645C400.738 266.135 404.97 265.379 409.761 265.379C416.793 265.379 422.326 266.877 426.363 269.872C430.425 272.866 432.938 276.916 433.902 282.02ZM492.073 282.02L479.182 283.426C478.818 282.124 478.18 280.9 477.268 279.754C476.383 278.609 475.185 277.684 473.675 276.981C472.164 276.278 470.315 275.926 468.128 275.926C465.185 275.926 462.711 276.564 460.706 277.84C458.727 279.116 457.75 280.77 457.776 282.801C457.75 284.546 458.388 285.965 459.69 287.059C461.018 288.153 463.206 289.051 466.253 289.754L476.487 291.942C482.164 293.166 486.383 295.106 489.143 297.762C491.93 300.418 493.336 303.895 493.362 308.192C493.336 311.968 492.229 315.301 490.042 318.192C487.88 321.056 484.873 323.296 481.018 324.911C477.164 326.525 472.737 327.333 467.737 327.333C460.393 327.333 454.482 325.796 450.003 322.723C445.524 319.624 442.854 315.314 441.995 309.793L455.784 308.465C456.409 311.174 457.737 313.218 459.768 314.598C461.8 315.978 464.443 316.668 467.698 316.668C471.057 316.668 473.753 315.978 475.784 314.598C477.841 313.218 478.87 311.512 478.87 309.481C478.87 307.762 478.206 306.343 476.878 305.223C475.576 304.103 473.544 303.244 470.784 302.645L460.55 300.497C454.794 299.299 450.537 297.28 447.776 294.442C445.016 291.577 443.649 287.958 443.675 283.583C443.649 279.885 444.651 276.681 446.682 273.973C448.74 271.239 451.591 269.129 455.237 267.645C458.909 266.135 463.141 265.379 467.932 265.379C474.964 265.379 480.498 266.877 484.534 269.872C488.596 272.866 491.11 276.916 492.073 282.02ZM597.009 273.153H582.4C581.983 270.757 581.215 268.635 580.095 266.786C578.975 264.911 577.582 263.322 575.915 262.02C574.249 260.718 572.348 259.741 570.212 259.09C568.103 258.413 565.824 258.075 563.376 258.075C559.027 258.075 555.173 259.168 551.814 261.356C548.454 263.517 545.824 266.694 543.923 270.887C542.022 275.054 541.071 280.145 541.071 286.161C541.071 292.28 542.022 297.437 543.923 301.629C545.85 305.796 548.48 308.947 551.814 311.083C555.173 313.192 559.014 314.247 563.337 314.247C565.733 314.247 567.973 313.934 570.056 313.309C572.165 312.658 574.053 311.708 575.72 310.458C577.413 309.208 578.832 307.671 579.978 305.848C581.15 304.025 581.957 301.942 582.4 299.598L597.009 299.676C596.462 303.478 595.277 307.046 593.454 310.379C591.657 313.713 589.301 316.655 586.384 319.208C583.467 321.734 580.056 323.713 576.15 325.145C572.243 326.551 567.907 327.254 563.142 327.254C556.111 327.254 549.834 325.627 544.314 322.372C538.793 319.116 534.444 314.416 531.267 308.27C528.09 302.124 526.501 294.754 526.501 286.161C526.501 277.541 528.103 270.171 531.306 264.051C534.509 257.905 538.871 253.205 544.392 249.95C549.913 246.694 556.163 245.067 563.142 245.067C567.595 245.067 571.736 245.692 575.564 246.942C579.392 248.192 582.803 250.028 585.798 252.45C588.793 254.846 591.254 257.788 593.181 261.278C595.134 264.741 596.41 268.7 597.009 273.153ZM621.596 291.004V326.161H607.455V246.161H621.284V276.356H621.987C623.393 272.971 625.567 270.301 628.51 268.348C631.479 266.369 635.255 265.379 639.838 265.379C644.005 265.379 647.638 266.252 650.737 267.997C653.836 269.741 656.232 272.293 657.924 275.653C659.643 279.012 660.502 283.114 660.502 287.958V326.161H646.362V290.145C646.362 286.109 645.32 282.971 643.237 280.731C641.179 278.465 638.289 277.333 634.565 277.333C632.065 277.333 629.825 277.879 627.846 278.973C625.893 280.041 624.357 281.59 623.237 283.622C622.143 285.653 621.596 288.114 621.596 291.004ZM689.982 327.372C686.18 327.372 682.755 326.694 679.709 325.34C676.688 323.96 674.292 321.929 672.521 319.247C670.776 316.564 669.904 313.257 669.904 309.325C669.904 305.939 670.529 303.14 671.779 300.926C673.029 298.713 674.735 296.942 676.896 295.614C679.058 294.286 681.492 293.283 684.201 292.606C686.935 291.903 689.761 291.395 692.677 291.083C696.193 290.718 699.045 290.392 701.232 290.106C703.42 289.793 705.008 289.325 705.998 288.7C707.013 288.049 707.521 287.046 707.521 285.692V285.458C707.521 282.515 706.649 280.236 704.904 278.622C703.159 277.007 700.646 276.2 697.365 276.2C693.901 276.2 691.154 276.955 689.123 278.465C687.117 279.976 685.763 281.76 685.06 283.817L671.857 281.942C672.899 278.296 674.617 275.249 677.013 272.801C679.409 270.327 682.339 268.478 685.802 267.254C689.266 266.004 693.094 265.379 697.287 265.379C700.177 265.379 703.055 265.718 705.92 266.395C708.784 267.072 711.401 268.192 713.771 269.754C716.141 271.291 718.042 273.387 719.474 276.043C720.933 278.7 721.662 282.02 721.662 286.004V326.161H708.068V317.918H707.599C706.74 319.585 705.529 321.148 703.966 322.606C702.43 324.038 700.49 325.197 698.146 326.083C695.828 326.942 693.107 327.372 689.982 327.372ZM693.654 316.981C696.492 316.981 698.953 316.421 701.037 315.301C703.12 314.155 704.722 312.645 705.841 310.77C706.987 308.895 707.56 306.851 707.56 304.637V297.567C707.117 297.931 706.362 298.27 705.295 298.583C704.253 298.895 703.081 299.168 701.779 299.403C700.477 299.637 699.188 299.846 697.912 300.028C696.636 300.21 695.529 300.366 694.591 300.497C692.482 300.783 690.594 301.252 688.927 301.903C687.261 302.554 685.946 303.465 684.982 304.637C684.018 305.783 683.537 307.267 683.537 309.09C683.537 311.694 684.487 313.661 686.388 314.989C688.289 316.317 690.711 316.981 693.654 316.981ZM733.68 326.161V266.161H747.821V326.161H733.68ZM740.79 257.645C738.55 257.645 736.623 256.903 735.009 255.418C733.394 253.908 732.587 252.098 732.587 249.989C732.587 247.853 733.394 246.043 735.009 244.559C736.623 243.049 738.55 242.293 740.79 242.293C743.055 242.293 744.983 243.049 746.571 244.559C748.186 246.043 748.993 247.853 748.993 249.989C748.993 252.098 748.186 253.908 746.571 255.418C744.983 256.903 743.055 257.645 740.79 257.645ZM774.303 291.004V326.161H760.162V266.161H773.678V276.356H774.381C775.761 272.997 777.962 270.327 780.982 268.348C784.029 266.369 787.792 265.379 792.271 265.379C796.412 265.379 800.019 266.265 803.092 268.036C806.191 269.806 808.587 272.372 810.279 275.731C811.998 279.09 812.844 283.166 812.818 287.958V326.161H798.678V290.145C798.678 286.135 797.636 282.997 795.553 280.731C793.495 278.465 790.644 277.333 786.998 277.333C784.524 277.333 782.324 277.879 780.396 278.973C778.495 280.041 776.998 281.59 775.904 283.622C774.837 285.653 774.303 288.114 774.303 291.004ZM203.891 367.161H221.625L245.375 425.129H246.313L270.063 367.161H287.797V447.161H273.891V392.2H273.148L251.039 446.926H240.648L218.539 392.083H217.797V447.161H203.891V367.161ZM327.316 448.333C321.3 448.333 316.105 447.083 311.73 444.583C307.381 442.056 304.034 438.489 301.691 433.879C299.347 429.244 298.175 423.788 298.175 417.512C298.175 411.34 299.347 405.924 301.691 401.262C304.06 396.575 307.368 392.929 311.613 390.325C315.857 387.694 320.844 386.379 326.573 386.379C330.271 386.379 333.761 386.978 337.042 388.176C340.349 389.348 343.266 391.171 345.792 393.645C348.344 396.119 350.349 399.27 351.808 403.098C353.266 406.9 353.995 411.431 353.995 416.692V421.028H304.816V411.497H340.441C340.415 408.788 339.829 406.379 338.683 404.27C337.537 402.135 335.935 400.455 333.878 399.231C331.847 398.007 329.477 397.395 326.769 397.395C323.878 397.395 321.339 398.098 319.152 399.504C316.964 400.885 315.258 402.708 314.034 404.973C312.836 407.213 312.224 409.674 312.198 412.356V420.676C312.198 424.166 312.836 427.161 314.113 429.661C315.389 432.135 317.172 434.036 319.464 435.364C321.756 436.666 324.438 437.317 327.511 437.317C329.568 437.317 331.43 437.03 333.097 436.458C334.764 435.859 336.209 434.986 337.433 433.84C338.657 432.694 339.581 431.275 340.206 429.583L353.409 431.067C352.576 434.556 350.988 437.603 348.644 440.208C346.326 442.786 343.357 444.791 339.738 446.223C336.118 447.629 331.977 448.333 327.316 448.333ZM411.18 403.02L398.289 404.426C397.925 403.124 397.287 401.9 396.375 400.754C395.49 399.609 394.292 398.684 392.782 397.981C391.271 397.278 389.422 396.926 387.235 396.926C384.292 396.926 381.818 397.564 379.813 398.84C377.834 400.116 376.857 401.77 376.883 403.801C376.857 405.546 377.495 406.965 378.797 408.059C380.125 409.153 382.313 410.051 385.36 410.754L395.594 412.942C401.271 414.166 405.49 416.106 408.25 418.762C411.037 421.418 412.443 424.895 412.469 429.192C412.443 432.968 411.336 436.301 409.149 439.192C406.987 442.056 403.98 444.296 400.125 445.911C396.271 447.525 391.844 448.333 386.844 448.333C379.5 448.333 373.589 446.796 369.11 443.723C364.631 440.624 361.961 436.314 361.102 430.793L374.891 429.465C375.516 432.174 376.844 434.218 378.875 435.598C380.907 436.978 383.55 437.668 386.805 437.668C390.164 437.668 392.86 436.978 394.891 435.598C396.948 434.218 397.977 432.512 397.977 430.481C397.977 428.762 397.313 427.343 395.985 426.223C394.683 425.103 392.651 424.244 389.891 423.645L379.657 421.497C373.901 420.299 369.644 418.28 366.883 415.442C364.123 412.577 362.756 408.958 362.782 404.583C362.756 400.885 363.758 397.681 365.789 394.973C367.847 392.239 370.698 390.129 374.344 388.645C378.016 387.135 382.248 386.379 387.039 386.379C394.071 386.379 399.605 387.877 403.641 390.872C407.704 393.866 410.217 397.916 411.18 403.02ZM469.351 403.02L456.461 404.426C456.096 403.124 455.458 401.9 454.546 400.754C453.661 399.609 452.463 398.684 450.953 397.981C449.442 397.278 447.593 396.926 445.406 396.926C442.463 396.926 439.989 397.564 437.984 398.84C436.005 400.116 435.028 401.77 435.054 403.801C435.028 405.546 435.666 406.965 436.968 408.059C438.296 409.153 440.484 410.051 443.531 410.754L453.765 412.942C459.442 414.166 463.661 416.106 466.421 418.762C469.208 421.418 470.614 424.895 470.64 429.192C470.614 432.968 469.507 436.301 467.32 439.192C465.158 442.056 462.151 444.296 458.296 445.911C454.442 447.525 450.015 448.333 445.015 448.333C437.671 448.333 431.76 446.796 427.281 443.723C422.802 440.624 420.132 436.314 419.273 430.793L433.062 429.465C433.687 432.174 435.015 434.218 437.046 435.598C439.078 436.978 441.721 437.668 444.976 437.668C448.336 437.668 451.031 436.978 453.062 435.598C455.119 434.218 456.148 432.512 456.148 430.481C456.148 428.762 455.484 427.343 454.156 426.223C452.854 425.103 450.823 424.244 448.062 423.645L437.828 421.497C432.073 420.299 427.815 418.28 425.054 415.442C422.294 412.577 420.927 408.958 420.953 404.583C420.927 400.885 421.929 397.681 423.961 394.973C426.018 392.239 428.869 390.129 432.515 388.645C436.187 387.135 440.419 386.379 445.211 386.379C452.242 386.379 457.776 387.877 461.812 390.872C465.875 393.866 468.388 397.916 469.351 403.02ZM497.366 448.372C493.564 448.372 490.139 447.694 487.093 446.34C484.072 444.96 481.676 442.929 479.905 440.247C478.16 437.564 477.288 434.257 477.288 430.325C477.288 426.939 477.913 424.14 479.163 421.926C480.413 419.713 482.119 417.942 484.28 416.614C486.442 415.286 488.876 414.283 491.585 413.606C494.319 412.903 497.145 412.395 500.061 412.083C503.577 411.718 506.429 411.392 508.616 411.106C510.804 410.793 512.392 410.325 513.382 409.7C514.397 409.049 514.905 408.046 514.905 406.692V406.458C514.905 403.515 514.033 401.236 512.288 399.622C510.543 398.007 508.03 397.2 504.749 397.2C501.285 397.2 498.538 397.955 496.507 399.465C494.501 400.976 493.147 402.76 492.444 404.817L479.241 402.942C480.283 399.296 482.001 396.249 484.397 393.801C486.793 391.327 489.723 389.478 493.186 388.254C496.65 387.004 500.478 386.379 504.671 386.379C507.561 386.379 510.439 386.718 513.304 387.395C516.168 388.072 518.785 389.192 521.155 390.754C523.525 392.291 525.426 394.387 526.858 397.043C528.317 399.7 529.046 403.02 529.046 407.004V447.161H515.452V438.918H514.983C514.124 440.585 512.913 442.148 511.35 443.606C509.814 445.038 507.874 446.197 505.53 447.083C503.212 447.942 500.491 448.372 497.366 448.372ZM501.038 437.981C503.876 437.981 506.337 437.421 508.421 436.301C510.504 435.155 512.106 433.645 513.225 431.77C514.371 429.895 514.944 427.851 514.944 425.637V418.567C514.501 418.931 513.746 419.27 512.679 419.583C511.637 419.895 510.465 420.168 509.163 420.403C507.861 420.637 506.572 420.846 505.296 421.028C504.02 421.21 502.913 421.366 501.975 421.497C499.866 421.783 497.978 422.252 496.311 422.903C494.645 423.554 493.33 424.465 492.366 425.637C491.402 426.783 490.921 428.267 490.921 430.09C490.921 432.694 491.871 434.661 493.772 435.989C495.673 437.317 498.095 437.981 501.038 437.981ZM567.158 470.911C562.08 470.911 557.718 470.221 554.072 468.84C550.426 467.486 547.497 465.663 545.283 463.372C543.07 461.08 541.533 458.541 540.674 455.754L553.408 452.668C553.981 453.84 554.814 454.999 555.908 456.145C557.002 457.317 558.473 458.28 560.322 459.036C562.197 459.817 564.554 460.208 567.393 460.208C571.403 460.208 574.723 459.231 577.354 457.278C579.984 455.351 581.299 452.174 581.299 447.747V436.379H580.596C579.867 437.838 578.799 439.335 577.393 440.872C576.012 442.408 574.176 443.697 571.885 444.739C569.619 445.78 566.768 446.301 563.33 446.301C558.721 446.301 554.541 445.221 550.791 443.059C547.067 440.872 544.098 437.616 541.885 433.293C539.697 428.944 538.604 423.502 538.604 416.965C538.604 410.377 539.697 404.817 541.885 400.286C544.098 395.728 547.08 392.278 550.83 389.934C554.58 387.564 558.76 386.379 563.369 386.379C566.885 386.379 569.775 386.978 572.041 388.176C574.333 389.348 576.156 390.767 577.51 392.434C578.864 394.075 579.893 395.624 580.596 397.083H581.377V387.161H595.322V448.137C595.322 453.267 594.098 457.512 591.65 460.872C589.202 464.231 585.856 466.744 581.611 468.411C577.367 470.077 572.549 470.911 567.158 470.911ZM567.275 435.208C570.27 435.208 572.822 434.478 574.932 433.02C577.041 431.562 578.643 429.465 579.736 426.731C580.83 423.997 581.377 420.715 581.377 416.887C581.377 413.111 580.83 409.804 579.736 406.965C578.669 404.127 577.08 401.926 574.971 400.364C572.887 398.775 570.322 397.981 567.275 397.981C564.124 397.981 561.494 398.801 559.385 400.442C557.275 402.083 555.687 404.335 554.619 407.2C553.551 410.038 553.018 413.267 553.018 416.887C553.018 420.559 553.551 423.775 554.619 426.536C555.713 429.27 557.314 431.405 559.424 432.942C561.559 434.452 564.176 435.208 567.275 435.208ZM607.614 447.161V387.161H621.755V447.161H607.614ZM614.724 378.645C612.484 378.645 610.557 377.903 608.943 376.418C607.328 374.908 606.521 373.098 606.521 370.989C606.521 368.853 607.328 367.043 608.943 365.559C610.557 364.049 612.484 363.293 614.724 363.293C616.989 363.293 618.917 364.049 620.505 365.559C622.12 367.043 622.927 368.853 622.927 370.989C622.927 373.098 622.12 374.908 620.505 376.418C618.917 377.903 616.989 378.645 614.724 378.645ZM648.237 412.004V447.161H634.096V387.161H647.612V397.356H648.315C649.695 393.997 651.896 391.327 654.916 389.348C657.963 387.369 661.726 386.379 666.205 386.379C670.346 386.379 673.953 387.265 677.026 389.036C680.125 390.806 682.521 393.372 684.213 396.731C685.932 400.09 686.778 404.166 686.752 408.958V447.161H672.612V411.145C672.612 407.135 671.57 403.997 669.487 401.731C667.429 399.465 664.578 398.333 660.932 398.333C658.458 398.333 656.258 398.879 654.33 399.973C652.429 401.041 650.932 402.59 649.838 404.622C648.771 406.653 648.237 409.114 648.237 412.004ZM725.021 470.911C719.943 470.911 715.581 470.221 711.935 468.84C708.289 467.486 705.36 465.663 703.146 463.372C700.933 461.08 699.396 458.541 698.537 455.754L711.271 452.668C711.844 453.84 712.677 454.999 713.771 456.145C714.865 457.317 716.336 458.28 718.185 459.036C720.06 459.817 722.417 460.208 725.255 460.208C729.266 460.208 732.586 459.231 735.216 457.278C737.847 455.351 739.162 452.174 739.162 447.747V436.379H738.459C737.729 437.838 736.662 439.335 735.255 440.872C733.875 442.408 732.039 443.697 729.748 444.739C727.482 445.78 724.63 446.301 721.193 446.301C716.584 446.301 712.404 445.221 708.654 443.059C704.93 440.872 701.961 437.616 699.748 433.293C697.56 428.944 696.466 423.502 696.466 416.965C696.466 410.377 697.56 404.817 699.748 400.286C701.961 395.728 704.943 392.278 708.693 389.934C712.443 387.564 716.623 386.379 721.232 386.379C724.748 386.379 727.638 386.978 729.904 388.176C732.196 389.348 734.018 390.767 735.373 392.434C736.727 394.075 737.755 395.624 738.459 397.083H739.24V387.161H753.185V448.137C753.185 453.267 751.961 457.512 749.513 460.872C747.065 464.231 743.719 466.744 739.474 468.411C735.229 470.077 730.412 470.911 725.021 470.911ZM725.138 435.208C728.133 435.208 730.685 434.478 732.795 433.02C734.904 431.562 736.505 429.465 737.599 426.731C738.693 423.997 739.24 420.715 739.24 416.887C739.24 413.111 738.693 409.804 737.599 406.965C736.532 404.127 734.943 401.926 732.834 400.364C730.75 398.775 728.185 397.981 725.138 397.981C721.987 397.981 719.357 398.801 717.248 400.442C715.138 402.083 713.55 404.335 712.482 407.2C711.414 410.038 710.88 413.267 710.88 416.887C710.88 420.559 711.414 423.775 712.482 426.536C713.576 429.27 715.177 431.405 717.287 432.942C719.422 434.452 722.039 435.208 725.138 435.208ZM844.781 392.708C844.13 390.598 843.232 388.71 842.086 387.043C840.966 385.351 839.612 383.905 838.023 382.708C836.461 381.51 834.664 380.611 832.633 380.012C830.602 379.387 828.388 379.075 825.992 379.075C821.695 379.075 817.867 380.155 814.508 382.317C811.148 384.478 808.505 387.655 806.578 391.848C804.677 396.015 803.727 401.093 803.727 407.083C803.727 413.124 804.677 418.241 806.578 422.434C808.479 426.627 811.122 429.817 814.508 432.004C817.893 434.166 821.826 435.247 826.305 435.247C830.367 435.247 833.883 434.465 836.852 432.903C839.846 431.34 842.151 429.127 843.766 426.262C845.38 423.372 846.188 419.986 846.188 416.106L849.469 416.614H827.75V405.286H860.211V414.895C860.211 421.744 858.753 427.668 855.836 432.668C852.919 437.668 848.909 441.523 843.805 444.231C838.701 446.913 832.841 448.254 826.227 448.254C818.857 448.254 812.385 446.601 806.813 443.293C801.266 439.96 796.93 435.234 793.805 429.114C790.706 422.968 789.156 415.676 789.156 407.239C789.156 400.78 790.068 395.012 791.891 389.934C793.74 384.856 796.318 380.546 799.625 377.004C802.932 373.437 806.813 370.728 811.266 368.879C815.719 367.004 820.563 366.067 825.797 366.067C830.224 366.067 834.352 366.718 838.18 368.02C842.008 369.296 845.406 371.119 848.375 373.489C851.37 375.859 853.831 378.671 855.758 381.926C857.685 385.181 858.948 388.775 859.547 392.708H844.781ZM888.665 448.372C884.863 448.372 881.439 447.694 878.392 446.34C875.371 444.96 872.975 442.929 871.204 440.247C869.459 437.564 868.587 434.257 868.587 430.325C868.587 426.939 869.212 424.14 870.462 421.926C871.712 419.713 873.418 417.942 875.579 416.614C877.741 415.286 880.176 414.283 882.884 413.606C885.618 412.903 888.444 412.395 891.361 412.083C894.876 411.718 897.728 411.392 899.915 411.106C902.103 410.793 903.691 410.325 904.681 409.7C905.696 409.049 906.204 408.046 906.204 406.692V406.458C906.204 403.515 905.332 401.236 903.587 399.622C901.842 398.007 899.329 397.2 896.048 397.2C892.584 397.2 889.837 397.955 887.806 399.465C885.801 400.976 884.446 402.76 883.743 404.817L870.54 402.942C871.582 399.296 873.301 396.249 875.696 393.801C878.092 391.327 881.022 389.478 884.486 388.254C887.949 387.004 891.777 386.379 895.97 386.379C898.861 386.379 901.738 386.718 904.603 387.395C907.467 388.072 910.084 389.192 912.454 390.754C914.824 392.291 916.725 394.387 918.157 397.043C919.616 399.7 920.345 403.02 920.345 407.004V447.161H906.751V438.918H906.282C905.423 440.585 904.212 442.148 902.65 443.606C901.113 445.038 899.173 446.197 896.829 447.083C894.512 447.942 891.79 448.372 888.665 448.372ZM892.337 437.981C895.176 437.981 897.637 437.421 899.72 436.301C901.803 435.155 903.405 433.645 904.525 431.77C905.67 429.895 906.243 427.851 906.243 425.637V418.567C905.801 418.931 905.045 419.27 903.978 419.583C902.936 419.895 901.764 420.168 900.462 420.403C899.16 420.637 897.871 420.846 896.595 421.028C895.319 421.21 894.212 421.366 893.275 421.497C891.165 421.783 889.277 422.252 887.611 422.903C885.944 423.554 884.629 424.465 883.665 425.637C882.702 426.783 882.22 428.267 882.22 430.09C882.22 432.694 883.17 434.661 885.071 435.989C886.973 437.317 889.394 437.981 892.337 437.981ZM962.325 387.161V398.098H927.832V387.161H962.325ZM936.348 372.786H950.489V429.114C950.489 431.015 950.775 432.473 951.348 433.489C951.947 434.478 952.728 435.155 953.692 435.52C954.655 435.885 955.723 436.067 956.895 436.067C957.78 436.067 958.588 436.002 959.317 435.872C960.072 435.741 960.645 435.624 961.036 435.52L963.418 446.575C962.663 446.835 961.582 447.122 960.176 447.434C958.796 447.747 957.103 447.929 955.098 447.981C951.556 448.085 948.366 447.551 945.528 446.379C942.689 445.181 940.437 443.333 938.77 440.833C937.129 438.333 936.322 435.208 936.348 431.458V372.786ZM997.869 448.333C991.853 448.333 986.658 447.083 982.283 444.583C977.934 442.056 974.588 438.489 972.244 433.879C969.9 429.244 968.728 423.788 968.728 417.512C968.728 411.34 969.9 405.924 972.244 401.262C974.614 396.575 977.921 392.929 982.166 390.325C986.41 387.694 991.397 386.379 997.127 386.379C1000.82 386.379 1004.31 386.978 1007.6 388.176C1010.9 389.348 1013.82 391.171 1016.35 393.645C1018.9 396.119 1020.9 399.27 1022.36 403.098C1023.82 406.9 1024.55 411.431 1024.55 416.692V421.028H975.369V411.497H1010.99C1010.97 408.788 1010.38 406.379 1009.24 404.27C1008.09 402.135 1006.49 400.455 1004.43 399.231C1002.4 398.007 1000.03 397.395 997.322 397.395C994.431 397.395 991.892 398.098 989.705 399.504C987.517 400.885 985.811 402.708 984.588 404.973C983.39 407.213 982.778 409.674 982.752 412.356V420.676C982.752 424.166 983.39 427.161 984.666 429.661C985.942 432.135 987.726 434.036 990.017 435.364C992.309 436.666 994.991 437.317 998.064 437.317C1000.12 437.317 1001.98 437.03 1003.65 436.458C1005.32 435.859 1006.76 434.986 1007.99 433.84C1009.21 432.694 1010.13 431.275 1010.76 429.583L1023.96 431.067C1023.13 434.556 1021.54 437.603 1019.2 440.208C1016.88 442.786 1013.91 444.791 1010.29 446.223C1006.67 447.629 1002.53 448.333 997.869 448.333ZM1046.37 447.161L1029.42 387.161H1043.83L1054.38 429.348H1054.93L1065.71 387.161H1079.97L1090.75 429.114H1091.33L1101.72 387.161H1116.18L1099.18 447.161H1084.46L1073.21 406.614H1072.39L1061.14 447.161H1046.37ZM1141.12 448.372C1137.31 448.372 1133.89 447.694 1130.84 446.34C1127.82 444.96 1125.43 442.929 1123.65 440.247C1121.91 437.564 1121.04 434.257 1121.04 430.325C1121.04 426.939 1121.66 424.14 1122.91 421.926C1124.16 419.713 1125.87 417.942 1128.03 416.614C1130.19 415.286 1132.63 414.283 1135.33 413.606C1138.07 412.903 1140.89 412.395 1143.81 412.083C1147.33 411.718 1150.18 411.392 1152.37 411.106C1154.55 410.793 1156.14 410.325 1157.13 409.7C1158.15 409.049 1158.65 408.046 1158.65 406.692V406.458C1158.65 403.515 1157.78 401.236 1156.04 399.622C1154.29 398.007 1151.78 397.2 1148.5 397.2C1145.03 397.2 1142.29 397.955 1140.26 399.465C1138.25 400.976 1136.9 402.76 1136.19 404.817L1122.99 402.942C1124.03 399.296 1125.75 396.249 1128.15 393.801C1130.54 391.327 1133.47 389.478 1136.94 388.254C1140.4 387.004 1144.23 386.379 1148.42 386.379C1151.31 386.379 1154.19 386.718 1157.05 387.395C1159.92 388.072 1162.53 389.192 1164.9 390.754C1167.27 392.291 1169.18 394.387 1170.61 397.043C1172.07 399.7 1172.79 403.02 1172.79 407.004V447.161H1159.2V438.918H1158.73C1157.87 440.585 1156.66 442.148 1155.1 443.606C1153.56 445.038 1151.62 446.197 1149.28 447.083C1146.96 447.942 1144.24 448.372 1141.12 448.372ZM1144.79 437.981C1147.63 437.981 1150.09 437.421 1152.17 436.301C1154.25 435.155 1155.85 433.645 1156.97 431.77C1158.12 429.895 1158.69 427.851 1158.69 425.637V418.567C1158.25 418.931 1157.5 419.27 1156.43 419.583C1155.39 419.895 1154.21 420.168 1152.91 420.403C1151.61 420.637 1150.32 420.846 1149.04 421.028C1147.77 421.21 1146.66 421.366 1145.72 421.497C1143.62 421.783 1141.73 422.252 1140.06 422.903C1138.39 423.554 1137.08 424.465 1136.12 425.637C1135.15 426.783 1134.67 428.267 1134.67 430.09C1134.67 432.694 1135.62 434.661 1137.52 435.989C1139.42 437.317 1141.84 437.981 1144.79 437.981ZM1191.45 469.661C1189.53 469.661 1187.74 469.504 1186.1 469.192C1184.49 468.905 1183.2 468.567 1182.24 468.176L1185.52 457.161C1187.57 457.76 1189.41 458.046 1191.02 458.02C1192.64 457.994 1194.06 457.486 1195.28 456.497C1196.53 455.533 1197.59 453.918 1198.45 451.653L1199.66 448.411L1177.9 387.161H1192.9L1206.73 432.473H1207.35L1221.22 387.161H1236.26L1212.24 454.426C1211.12 457.603 1209.63 460.325 1207.78 462.59C1205.93 464.882 1203.67 466.627 1200.99 467.825C1198.33 469.049 1195.15 469.661 1191.45 469.661Z" fill="white"/>
<path d="M1931.96 288.752L1980.41 240.561L1962.02 222.28L1922.76 261.319L1883.5 222.292L1865.11 240.573L1913.57 288.752C1916.11 291.278 1919.44 292.541 1922.76 292.541C1926.08 292.541 1929.41 291.278 1931.94 288.752H1931.96Z" fill="black"/>
<path d="M2002.11 340.214L1962.85 301.175L2002.11 262.136L1983.72 243.855L1935.27 292.035C1930.19 297.086 1930.19 305.264 1935.27 310.316L1983.72 358.495L2002.11 340.214Z" fill="black"/>
<path d="M1922.7 341.093L1961.96 380.132L1980.35 361.851L1931.9 313.672C1926.82 308.62 1918.6 308.62 1913.51 313.672L1865.04 361.851L1883.43 380.132L1922.7 341.093Z" fill="black"/>
<path d="M1910.2 310.376C1912.64 307.947 1914.01 304.663 1914.01 301.236C1914.01 297.808 1912.64 294.525 1910.2 292.095L1861.73 243.928L1843.34 262.209L1882.61 301.248L1843.36 340.287L1861.75 358.568L1910.2 310.388V310.376Z" fill="black"/>
<rect x="2020.89" y="163.581" width="279.112" height="279.112" rx="139.556" fill="white"/>
<path d="M2104.12 369.146C2118.77 343.785 2131.23 322.87 2147.06 294.204C2152.65 284.531 2162.31 278.52 2174.24 278.52H2192.98L2140.64 369.146H2104.12Z" fill="#2E99FF"/>
<path d="M2104.28 237.123H2216.75L2197.53 270.628H2104.28V237.123Z" fill="#4F56FA"/>
<path d="M2160.62 348.281C2164.85 340.805 2171.65 336.16 2181.17 336.16L2216.77 336.063V369.151H2148.55C2152.82 361.826 2156.53 355.505 2160.62 348.281Z" fill="#09C2FF"/>
<path d="M1922.65 164.469C1966.81 164.469 2006.19 184.986 2031.76 217.007C2015 241.857 2005.22 271.799 2005.22 304.025C2005.22 336.251 2015 366.192 2031.76 391.041C2006.19 423.063 1966.81 443.58 1922.65 443.58C1845.57 443.58 1783.09 381.099 1783.09 304.025C1783.09 226.95 1845.57 164.469 1922.65 164.469ZM1932.51 314.561C1927.43 309.51 1919.21 309.51 1914.12 314.561L1865.65 362.74L1884.04 381.021L1923.31 341.982L1962.58 381.021L1980.97 362.74L1932.51 314.561ZM1843.96 263.097L1883.23 302.136L1843.97 341.175L1862.36 359.456L1910.81 311.277V311.265C1913.26 308.836 1914.63 305.552 1914.63 302.124C1914.63 298.697 1913.26 295.413 1910.81 292.984L1862.35 244.817L1843.96 263.097ZM1935.88 292.923C1930.81 297.974 1930.81 306.153 1935.88 311.204L1984.34 359.384L2002.73 341.103L1963.46 302.064L2002.73 263.025L1984.34 244.745L1935.88 292.923ZM1923.37 262.207L1884.11 223.18L1865.73 241.461L1914.18 289.641C1916.72 292.166 1920.05 293.429 1923.37 293.429C1926.69 293.429 1930.02 292.167 1932.56 289.641H1932.57L1981.03 241.45L1962.64 223.168L1923.37 262.207Z" fill="white"/>
</g>
<defs>
<filter id="filter0_f_68_1123" x="-3061.25" y="-6528.86" width="8295.71" height="9568.43" filterUnits="userSpaceOnUse" color-interpolation-filters="sRGB">
<feFlood flood-opacity="0" result="BackgroundImageFix"/>
<feBlend mode="normal" in="SourceGraphic" in2="BackgroundImageFix" result="shape"/>
<feGaussianBlur stdDeviation="665.9" result="effect1_foregroundBlur_68_1123"/>
</filter>
<filter id="filter1_f_68_1123" x="-4948.25" y="-6718.86" width="8295.71" height="9568.43" filterUnits="userSpaceOnUse" color-interpolation-filters="sRGB">
<feFlood flood-opacity="0" result="BackgroundImageFix"/>
<feBlend mode="normal" in="SourceGraphic" in2="BackgroundImageFix" result="shape"/>
<feGaussianBlur stdDeviation="665.9" result="effect1_foregroundBlur_68_1123"/>
</filter>
<linearGradient id="paint0_linear_68_1123" x1="1455.49" y1="105.832" x2="2260.05" y2="560.006" gradientUnits="userSpaceOnUse">
<stop offset="0.110219" stop-color="#285AA3" stop-opacity="0"/>
<stop offset="0.622051" stop-color="#3A74B6"/>
<stop offset="1" stop-color="#5D8EC7"/>
</linearGradient>
<clipPath id="clip0_68_1123">
<rect width="2496" height="607" rx="16" fill="white"/>
</clipPath>
</defs>
</svg>
